STARTFONT 2.1
FONT -Adobe-Helvetica-Medium-R-Normal--17-120-100-100-P-88-ISO8859-2
SIZE 12 100 100
FONTBOUNDINGBOX 17 20 -1 -4
COMMENT $XConsortium: helvR12.bdf,v 1.7 95/01/26 17:55:22 gildea Exp $
COMMENT 
COMMENT +
COMMENT  Copyright 1984-1989, 1994 Adobe Systems Incorporated.
COMMENT  Copyright 1988, 1994 Digital Equipment Corporation.
COMMENT
COMMENT  Adobe is a trademark of Adobe Systems Incorporated which may be
COMMENT  registered in certain jurisdictions.
COMMENT  Permission to use these trademarks is hereby granted only in
COMMENT  association with the images described in this file.
COMMENT
COMMENT  Permission to use, copy, modify, distribute and sell this software
COMMENT  and its documentation for any purpose and without fee is hereby
COMMENT  granted, provided that the above copyright notices appear in all
COMMENT  copies and that both those copyright notices and this permission
COMMENT  notice appear in supporting documentation, and that the names of
COMMENT  Adobe Systems and Digital Equipment Corporation not be used in
COMMENT  advertising or publicity pertaining to distribution of the software
COMMENT  without specific, written prior permission.  Adobe Systems and
COMMENT  Digital Equipment Corporation make no representations about the
COMMENT  suitability of this software for any purpose.  It is provided "as
COMMENT  is" without express or implied warranty.
COMMENT -
COMMENT  
COMMENT  Translation to ISO8859-2 by Cub Soft;  Petr.Kolar@vslib.cz
COMMENT  
STARTPROPERTIES 28
FOUNDRY "Adobe"
FAMILY_NAME "Helvetica"
WEIGHT_NAME "Medium"
SLANT "R"
SETWIDTH_NAME "Normal"
ADD_STYLE_NAME ""
PIXEL_SIZE 17
POINT_SIZE 120
RESOLUTION_X 100
RESOLUTION_Y 100
SPACING "P"
AVERAGE_WIDTH 88
CHARSET_REGISTRY "ISO8859"
CHARSET_ENCODING "2"
CAP_HEIGHT 12
X_HEIGHT 9
FONT_ASCENT 14
FONT_DESCENT 4
FACE_NAME "Helvetica"

STARTCHAR space
ENCODING 32
SWIDTH 278 0
DWIDTH 5 0
BBX 1 1 0 0
BITMAP
00
ENDCHAR
STARTCHAR exclam
ENCODING 33
SWIDTH 278 0
DWIDTH 5 0
BBX 1 12 2 0
BITMAP
80
80
80
80
80
80
80
80
80
00
80
80
ENDCHAR
STARTCHAR quotedbl
ENCODING 34
SWIDTH 355 0
DWIDTH 6 0
BBX 4 4 1 8
BITMAP
90
90
90
90
ENDCHAR
STARTCHAR numbersign
ENCODING 35
SWIDTH 556 0
DWIDTH 9 0
BBX 8 11 0 0
BITMAP
12
12
12
7f
24
24
24
fe
48
48
48
ENDCHAR
STARTCHAR dollar
ENCODING 36
SWIDTH 556 0
DWIDTH 9 0
BBX 7 15 1 -2
BITMAP
10
7c
92
92
90
50
30
18
14
12
92
92
7c
10
10
ENDCHAR
STARTCHAR percent
ENCODING 37
SWIDTH 889 0
DWIDTH 14 0
BBX 12 12 0 0
BITMAP
7040
8880
8880
8900
7200
0200
0400
04e0
0910
1110
1110
20e0
ENDCHAR
STARTCHAR ampersand
ENCODING 38
SWIDTH 667 0
DWIDTH 11 0
BBX 10 12 0 0
BITMAP
1800
2400
4200
4200
2400
1800
2900
4500
8200
8300
4480
3840
ENDCHAR
STARTCHAR apostrophe
ENCODING 39
SWIDTH 222 0
DWIDTH 4 0
BBX 2 4 0 8
BITMAP
40
40
40
80
ENDCHAR
STARTCHAR parenleft
ENCODING 40
SWIDTH 333 0
DWIDTH 6 0
BBX 3 16 1 -4
BITMAP
20
40
40
40
80
80
80
80
80
80
80
80
40
40
40
20
ENDCHAR
STARTCHAR parenright
ENCODING 41
SWIDTH 333 0
DWIDTH 6 0
BBX 3 16 1 -4
BITMAP
80
40
40
40
20
20
20
20
20
20
20
20
40
40
40
80
ENDCHAR
STARTCHAR asterisk
ENCODING 42
SWIDTH 389 0
DWIDTH 6 0
BBX 5 5 0 7
BITMAP
20
a8
70
50
88
ENDCHAR
STARTCHAR plus
ENCODING 43
SWIDTH 584 0
DWIDTH 10 0
BBX 9 9 0 0
BITMAP
0800
0800
0800
0800
ff80
0800
0800
0800
0800
ENDCHAR
STARTCHAR comma
ENCODING 44
SWIDTH 278 0
DWIDTH 4 0
BBX 2 4 1 -2
BITMAP
40
40
40
80
ENDCHAR
STARTCHAR minus
ENCODING 45
SWIDTH 584 0
DWIDTH 10 0
BBX 8 1 1 4
BITMAP
ff
ENDCHAR
STARTCHAR period
ENCODING 46
SWIDTH 278 0
DWIDTH 4 0
BBX 1 2 2 0
BITMAP
80
80
ENDCHAR
STARTCHAR slash
ENCODING 47
SWIDTH 278 0
DWIDTH 5 0
BBX 4 12 0 0
BITMAP
10
10
20
20
20
20
40
40
40
80
80
80
ENDCHAR
STARTCHAR zero
ENCODING 48
SWIDTH 556 0
DWIDTH 9 0
BBX 7 12 1 0
BITMAP
38
44
44
82
82
82
82
82
82
44
44
38
ENDCHAR
STARTCHAR one
ENCODING 49
SWIDTH 556 0
DWIDTH 9 0
BBX 3 12 3 0
BITMAP
20
20
60
a0
20
20
20
20
20
20
20
20
ENDCHAR
STARTCHAR two
ENCODING 50
SWIDTH 556 0
DWIDTH 9 0
BBX 7 12 1 0
BITMAP
38
44
82
82
02
04
08
30
40
80
80
fe
ENDCHAR
STARTCHAR three
ENCODING 51
SWIDTH 556 0
DWIDTH 9 0
BBX 7 12 1 0
BITMAP
38
44
82
82
04
38
04
02
82
82
44
38
ENDCHAR
STARTCHAR four
ENCODING 52
SWIDTH 556 0
DWIDTH 9 0
BBX 8 12 0 0
BITMAP
0c
14
14
24
24
44
44
84
ff
04
04
04
ENDCHAR
STARTCHAR five
ENCODING 53
SWIDTH 556 0
DWIDTH 9 0
BBX 7 12 1 0
BITMAP
3e
20
20
40
78
44
02
02
02
82
44
38
ENDCHAR
STARTCHAR six
ENCODING 54
SWIDTH 556 0
DWIDTH 9 0
BBX 7 12 1 0
BITMAP
3c
42
82
80
b8
c4
82
82
82
82
44
38
ENDCHAR
STARTCHAR seven
ENCODING 55
SWIDTH 556 0
DWIDTH 9 0
BBX 8 12 0 0
BITMAP
ff
01
02
04
04
08
08
10
10
10
20
20
ENDCHAR
STARTCHAR eight
ENCODING 56
SWIDTH 556 0
DWIDTH 9 0
BBX 7 12 1 0
BITMAP
38
44
82
82
44
38
44
82
82
82
44
38
ENDCHAR
STARTCHAR nine
ENCODING 57
SWIDTH 556 0
DWIDTH 9 0
BBX 7 12 1 0
BITMAP
38
44
82
82
82
82
46
3a
02
82
84
78
ENDCHAR
STARTCHAR colon
ENCODING 58
SWIDTH 278 0
DWIDTH 4 0
BBX 1 9 2 0
BITMAP
80
80
00
00
00
00
00
80
80
ENDCHAR
STARTCHAR semicolon
ENCODING 59
SWIDTH 278 0
DWIDTH 4 0
BBX 2 11 1 -2
BITMAP
40
40
00
00
00
00
00
40
40
40
80
ENDCHAR
STARTCHAR less
ENCODING 60
SWIDTH 584 0
DWIDTH 10 0
BBX 9 9 0 0
BITMAP
0180
0600
1800
6000
8000
6000
1800
0600
0180
ENDCHAR
STARTCHAR equal
ENCODING 61
SWIDTH 584 0
DWIDTH 10 0
BBX 8 4 0 2
BITMAP
ff
00
00
ff
ENDCHAR
STARTCHAR greater
ENCODING 62
SWIDTH 584 0
DWIDTH 10 0
BBX 9 9 1 0
BITMAP
c000
3000
0c00
0300
0080
0300
0c00
3000
c000
ENDCHAR
STARTCHAR question
ENCODING 63
SWIDTH 556 0
DWIDTH 9 0
BBX 7 12 1 0
BITMAP
38
44
82
82
02
04
08
10
10
00
10
10
ENDCHAR
STARTCHAR at
ENCODING 64
SWIDTH 1015 0
DWIDTH 17 0
BBX 13 14 1 -2
BITMAP
0780
1860
2010
43d0
4c48
8848
9088
9088
9090
9990
4e60
4000
3060
0f80
ENDCHAR
STARTCHAR A
ENCODING 65
SWIDTH 667 0
DWIDTH 11 0
BBX 10 12 0 0
BITMAP
0c00
0c00
1200
1200
1200
2100
2100
7f80
4080
4080
8040
8040
ENDCHAR
STARTCHAR B
ENCODING 66
SWIDTH 667 0
DWIDTH 11 0
BBX 9 12 1 0
BITMAP
fc00
8200
8100
8100
8200
fe00
8100
8080
8080
8080
8100
fe00
ENDCHAR
STARTCHAR C
ENCODING 67
SWIDTH 722 0
DWIDTH 12 0
BBX 10 12 1 0
BITMAP
0f00
3080
4040
4000
8000
8000
8000
8000
4000
4040
3080
0f00
ENDCHAR
STARTCHAR D
ENCODING 68
SWIDTH 722 0
DWIDTH 12 0
BBX 10 12 1 0
BITMAP
fc00
8300
8080
8080
8040
8040
8040
8040
8080
8080
8300
fc00
ENDCHAR
STARTCHAR E
ENCODING 69
SWIDTH 667 0
DWIDTH 11 0
BBX 8 12 1 0
BITMAP
ff
80
80
80
80
ff
80
80
80
80
80
ff
ENDCHAR
STARTCHAR F
ENCODING 70
SWIDTH 611 0
DWIDTH 10 0
BBX 7 12 1 0
BITMAP
fe
80
80
80
80
fe
80
80
80
80
80
80
ENDCHAR
STARTCHAR G
ENCODING 71
SWIDTH 778 0
DWIDTH 13 0
BBX 10 12 1 0
BITMAP
0e00
3180
4040
4000
8000
8000
87c0
8040
4040
40c0
3140
0e40
ENDCHAR
STARTCHAR H
ENCODING 72
SWIDTH 722 0
DWIDTH 12 0
BBX 9 12 1 0
BITMAP
8080
8080
8080
8080
8080
ff80
8080
8080
8080
8080
8080
8080
ENDCHAR
STARTCHAR I
ENCODING 73
SWIDTH 278 0
DWIDTH 4 0
BBX 1 12 1 0
BITMAP
80
80
80
80
80
80
80
80
80
80
80
80
ENDCHAR
STARTCHAR J
ENCODING 74
SWIDTH 500 0
DWIDTH 8 0
BBX 6 12 0 0
BITMAP
04
04
04
04
04
04
04
04
84
84
84
78
ENDCHAR
STARTCHAR K
ENCODING 75
SWIDTH 667 0
DWIDTH 11 0
BBX 8 12 1 0
BITMAP
81
82
84
88
90
b0
c8
88
84
82
82
81
ENDCHAR
STARTCHAR L
ENCODING 76
SWIDTH 556 0
DWIDTH 9 0
BBX 7 12 1 0
BITMAP
80
80
80
80
80
80
80
80
80
80
80
fe
ENDCHAR
STARTCHAR M
ENCODING 77
SWIDTH 833 0
DWIDTH 13 0
BBX 11 12 1 0
BITMAP
8020
c060
c060
a0a0
a0a0
a0a0
9120
9120
9120
8a20
8a20
8420
ENDCHAR
STARTCHAR N
ENCODING 78
SWIDTH 722 0
DWIDTH 12 0
BBX 9 12 1 0
BITMAP
8080
c080
a080
a080
9080
8880
8880
8480
8280
8280
8180
8080
ENDCHAR
STARTCHAR O
ENCODING 79
SWIDTH 778 0
DWIDTH 13 0
BBX 11 12 1 0
BITMAP
0e00
3180
4040
4040
8020
8020
8020
8020
4040
4040
3180
0e00
ENDCHAR
STARTCHAR P
ENCODING 80
SWIDTH 667 0
DWIDTH 11 0
BBX 8 12 2 0
BITMAP
fc
82
81
81
82
fc
80
80
80
80
80
80
ENDCHAR
STARTCHAR Q
ENCODING 81
SWIDTH 778 0
DWIDTH 13 0
BBX 11 13 1 -1
BITMAP
0e00
3180
4040
4040
8020
8020
8020
8020
4040
4240
3180
0e80
0040
ENDCHAR
STARTCHAR R
ENCODING 82
SWIDTH 722 0
DWIDTH 12 0
BBX 9 12 2 0
BITMAP
fc00
8200
8100
8100
8200
fc00
8200
8100
8100
8100
8100
8080
ENDCHAR
STARTCHAR S
ENCODING 83
SWIDTH 667 0
DWIDTH 11 0
BBX 9 12 1 0
BITMAP
3e00
4100
8080
8080
4000
3000
0e00
0100
8080
8080
4100
3e00
ENDCHAR
STARTCHAR T
ENCODING 84
SWIDTH 611 0
DWIDTH 10 0
BBX 9 12 0 0
BITMAP
ff80
0800
0800
0800
0800
0800
0800
0800
0800
0800
0800
0800
ENDCHAR
STARTCHAR U
ENCODING 85
SWIDTH 722 0
DWIDTH 12 0
BBX 9 12 1 0
BITMAP
8080
8080
8080
8080
8080
8080
8080
8080
8080
8080
4100
3e00
ENDCHAR
STARTCHAR V
ENCODING 86
SWIDTH 667 0
DWIDTH 11 0
BBX 10 12 0 0
BITMAP
8040
8040
4080
4080
4080
2100
2100
1200
1200
1200
0c00
0c00
ENDCHAR
STARTCHAR W
ENCODING 87
SWIDTH 944 0
DWIDTH 15 0
BBX 13 12 1 0
BITMAP
8208
8208
8208
4510
4510
4510
28a0
28a0
28a0
1040
1040
1040
ENDCHAR
STARTCHAR X
ENCODING 88
SWIDTH 667 0
DWIDTH 11 0
BBX 8 12 1 0
BITMAP
81
42
42
24
24
18
18
24
24
42
42
81
ENDCHAR
STARTCHAR Y
ENCODING 89
SWIDTH 667 0
DWIDTH 11 0
BBX 9 12 1 0
BITMAP
8080
4100
4100
2200
2200
1400
1c00
0800
0800
0800
0800
0800
ENDCHAR
STARTCHAR Z
ENCODING 90
SWIDTH 611 0
DWIDTH 10 0
BBX 9 12 0 0
BITMAP
7f80
0100
0300
0200
0400
0c00
0800
1000
3000
2000
4000
ff80
ENDCHAR
STARTCHAR bracketleft
ENCODING 91
SWIDTH 278 0
DWIDTH 5 0
BBX 3 15 1 -3
BITMAP
e0
80
80
80
80
80
80
80
80
80
80
80
80
80
e0
ENDCHAR
STARTCHAR backslash
ENCODING 92
SWIDTH 278 0
DWIDTH 5 0
BBX 4 12 0 0
BITMAP
80
80
40
40
40
40
20
20
20
10
10
10
ENDCHAR
STARTCHAR bracketright
ENCODING 93
SWIDTH 278 0
DWIDTH 5 0
BBX 3 15 0 -3
BITMAP
e0
20
20
20
20
20
20
20
20
20
20
20
20
20
e0
ENDCHAR
STARTCHAR asciicircum
ENCODING 94
SWIDTH 469 0
DWIDTH 8 0
BBX 7 7 0 5
BITMAP
10
28
28
44
44
82
82
ENDCHAR
STARTCHAR underscore
ENCODING 95
SWIDTH 556 0
DWIDTH 9 0
BBX 9 1 0 -3
BITMAP
ff80
ENDCHAR
STARTCHAR grave
ENCODING 96
SWIDTH 333 0
DWIDTH 6 0
BBX 3 3 0 10
BITMAP
80
c0
20
ENDCHAR
STARTCHAR a
ENCODING 97
SWIDTH 556 0
DWIDTH 9 0
BBX 8 9 1 0
BITMAP
7c
82
02
06
7a
82
82
86
7b
ENDCHAR
STARTCHAR b
ENCODING 98
SWIDTH 556 0
DWIDTH 9 0
BBX 7 12 1 0
BITMAP
80
80
80
b8
c4
82
82
82
82
82
c4
b8
ENDCHAR
STARTCHAR c
ENCODING 99
SWIDTH 500 0
DWIDTH 8 0
BBX 7 9 1 0
BITMAP
38
44
82
80
80
80
82
44
38
ENDCHAR
STARTCHAR d
ENCODING 100
SWIDTH 556 0
DWIDTH 9 0
BBX 7 12 1 0
BITMAP
02
02
02
3a
46
82
82
82
82
82
46
3a
ENDCHAR
STARTCHAR e
ENCODING 101
SWIDTH 556 0
DWIDTH 9 0
BBX 7 9 1 0
BITMAP
38
44
82
82
fe
80
82
44
38
ENDCHAR
STARTCHAR f
ENCODING 102
SWIDTH 278 0
DWIDTH 5 0
BBX 4 12 1 0
BITMAP
30
40
40
f0
40
40
40
40
40
40
40
40
ENDCHAR
STARTCHAR g
ENCODING 103
SWIDTH 556 0
DWIDTH 9 0
BBX 7 13 1 -4
BITMAP
3a
46
82
82
82
82
82
46
3a
02
82
84
78
ENDCHAR
STARTCHAR h
ENCODING 104
SWIDTH 556 0
DWIDTH 9 0
BBX 7 12 1 0
BITMAP
80
80
80
bc
c2
82
82
82
82
82
82
82
ENDCHAR
STARTCHAR i
ENCODING 105
SWIDTH 222 0
DWIDTH 3 0
BBX 1 12 1 0
BITMAP
80
80
00
80
80
80
80
80
80
80
80
80
ENDCHAR
STARTCHAR j
ENCODING 106
SWIDTH 222 0
DWIDTH 4 0
BBX 3 16 -1 -4
BITMAP
20
20
00
20
20
20
20
20
20
20
20
20
20
20
20
c0
ENDCHAR
STARTCHAR k
ENCODING 107
SWIDTH 500 0
DWIDTH 8 0
BBX 7 12 0 0
BITMAP
80
80
80
84
88
90
a0
e0
90
88
84
82
ENDCHAR
STARTCHAR l
ENCODING 108
SWIDTH 222 0
DWIDTH 3 0
BBX 1 12 1 0
BITMAP
80
80
80
80
80
80
80
80
80
80
80
80
ENDCHAR
STARTCHAR m
ENCODING 109
SWIDTH 833 0
DWIDTH 14 0
BBX 11 9 2 0
BITMAP
b9c0
c620
8420
8420
8420
8420
8420
8420
8420
ENDCHAR
STARTCHAR n
ENCODING 110
SWIDTH 556 0
DWIDTH 9 0
BBX 7 9 1 0
BITMAP
bc
c2
82
82
82
82
82
82
82
ENDCHAR
STARTCHAR o
ENCODING 111
SWIDTH 556 0
DWIDTH 9 0
BBX 7 9 1 0
BITMAP
38
44
82
82
82
82
82
44
38
ENDCHAR
STARTCHAR p
ENCODING 112
SWIDTH 556 0
DWIDTH 9 0
BBX 7 13 1 -4
BITMAP
b8
c4
82
82
82
82
82
c4
b8
80
80
80
80
ENDCHAR
STARTCHAR q
ENCODING 113
SWIDTH 556 0
DWIDTH 9 0
BBX 7 13 1 -4
BITMAP
3a
46
82
82
82
82
82
46
3a
02
02
02
02
ENDCHAR
STARTCHAR r
ENCODING 114
SWIDTH 333 0
DWIDTH 5 0
BBX 4 9 1 0
BITMAP
b0
c0
80
80
80
80
80
80
80
ENDCHAR
STARTCHAR s
ENCODING 115
SWIDTH 500 0
DWIDTH 8 0
BBX 6 9 1 0
BITMAP
78
84
84
c0
30
0c
84
84
78
ENDCHAR
STARTCHAR t
ENCODING 116
SWIDTH 278 0
DWIDTH 5 0
BBX 4 11 1 0
BITMAP
40
40
f0
40
40
40
40
40
40
40
30
ENDCHAR
STARTCHAR u
ENCODING 117
SWIDTH 556 0
DWIDTH 9 0
BBX 7 9 1 0
BITMAP
82
82
82
82
82
82
82
86
7a
ENDCHAR
STARTCHAR v
ENCODING 118
SWIDTH 500 0
DWIDTH 8 0
BBX 7 9 0 0
BITMAP
82
82
44
44
44
28
28
38
10
ENDCHAR
STARTCHAR w
ENCODING 119
SWIDTH 722 0
DWIDTH 12 0
BBX 11 9 0 0
BITMAP
8420
8420
4440
4e40
4a40
2a80
2a80
1100
1100
ENDCHAR
STARTCHAR x
ENCODING 120
SWIDTH 500 0
DWIDTH 8 0
BBX 7 9 0 0
BITMAP
82
44
44
28
10
28
44
44
82
ENDCHAR
STARTCHAR y
ENCODING 121
SWIDTH 500 0
DWIDTH 8 0
BBX 7 12 0 -3
BITMAP
82
82
44
44
28
28
38
10
10
20
20
c0
ENDCHAR
STARTCHAR z
ENCODING 122
SWIDTH 500 0
DWIDTH 8 0
BBX 6 9 1 0
BITMAP
fc
04
08
10
20
20
40
80
fc
ENDCHAR
STARTCHAR braceleft
ENCODING 123
SWIDTH 334 0
DWIDTH 6 0
BBX 3 16 1 -4
BITMAP
20
40
40
40
40
40
40
80
40
40
40
40
40
40
40
20
ENDCHAR
STARTCHAR bar
ENCODING 124
SWIDTH 260 0
DWIDTH 4 0
BBX 1 16 1 -4
BITMAP
80
80
80
80
80
80
80
80
80
80
80
80
80
80
80
80
ENDCHAR
STARTCHAR braceright
ENCODING 125
SWIDTH 334 0
DWIDTH 6 0
BBX 3 16 1 -4
BITMAP
80
40
40
40
40
40
40
20
40
40
40
40
40
40
40
80
ENDCHAR
STARTCHAR asciitilde
ENCODING 126
SWIDTH 584 0
DWIDTH 10 0
BBX 8 2 1 4
BITMAP
71
8e
ENDCHAR
STARTCHAR nobreakspace
ENCODING 160
SWIDTH 278 0
DWIDTH 5 0
BBX 1 1 0 0
BITMAP
00
ENDCHAR
STARTCHAR Aogonek
ENCODING 161
SWIDTH 667 0
DWIDTH 11 0
BBX 10 16 0 -4
BITMAP
0c00
0c00
1200
1200
1200
2100
2100
7f80
4080
4080
8040
8040
0800
1000
1200
1c00
ENDCHAR
STARTCHAR breve
ENCODING 162
SWIDTH 333 0
DWIDTH 6 0
BBX 5 2 0 10
BITMAP
88
70
ENDCHAR
STARTCHAR Lstroke
ENCODING 163
SWIDTH 556 0
DWIDTH 9 0
BBX 9 12 0 0
BITMAP
2000
2000
2000
2800
3000
6000
a000
2000
2000
2000
2000
3f80
ENDCHAR
STARTCHAR currency
ENCODING 164
SWIDTH 556 0
DWIDTH 9 0
BBX 8 7 0 3
BITMAP
bd
66
42
42
42
66
bd
ENDCHAR
STARTCHAR Lcaron
ENCODING 165
SWIDTH 556 0
DWIDTH 9 0
BBX 7 13 1 0
BITMAP
10
90
90
a0
80
80
80
80
80
80
80
80
fe
ENDCHAR
STARTCHAR Sacute
ENCODING 166
SWIDTH 667 0
DWIDTH 11 0
BBX 9 16 1 0
BITMAP
0200
0600
0800
0000
3e00
4100
8080
8080
4000
3000
0e00
0100
8080
8080
4100
3e00
ENDCHAR
STARTCHAR section
ENCODING 167
SWIDTH 556 0
DWIDTH 9 0
BBX 7 15 1 -3
BITMAP
38
44
46
60
98
8c
86
c2
62
32
1c
04
c4
44
38
ENDCHAR
STARTCHAR diaeresis
ENCODING 168
SWIDTH 333 0
DWIDTH 5 0
BBX 3 2 1 10
BITMAP
a0
a0
ENDCHAR
STARTCHAR Scaron
ENCODING 169
SWIDTH 667 0
DWIDTH 11 0
BBX 9 16 1 0
BITMAP
2200
1400
0800
0000
3e00
4100
8080
8080
4000
3000
0e00
0100
8080
8080
4100
3e00
ENDCHAR
STARTCHAR Scedilla
ENCODING 170
SWIDTH 667 0
DWIDTH 11 0
BBX 9 16 1 -4
BITMAP
3e00
4100
8080
8080
4000
3000
0e00
0100
8080
8080
4100
3e00
0400
0400
1200
0c00
ENDCHAR
STARTCHAR Tcaron
ENCODING 171
SWIDTH 611 0
DWIDTH 10 0
BBX 9 16 0 0
BITMAP
2200
1400
0800
0000
ff80
0800
0800
0800
0800
0800
0800
0800
0800
0800
0800
0800
ENDCHAR
STARTCHAR Zacute
ENCODING 172
SWIDTH 611 0
DWIDTH 10 0
BBX 9 16 0 0
BITMAP
0200
0600
0800
0000
7f80
0100
0300
0200
0400
0c00
0800
1000
3000
2000
4000
ff80
ENDCHAR
STARTCHAR hyphen
ENCODING 173
SWIDTH 333 0
DWIDTH 5 0
BBX 4 1 0 4
BITMAP
f0
ENDCHAR
STARTCHAR Zcaron
ENCODING 174
SWIDTH 611 0
DWIDTH 10 0
BBX 9 16 0 0
BITMAP
2200
1400
0800
0000
7f80
0100
0300
0200
0400
0c00
0800
1000
3000
2000
4000
ff80
ENDCHAR
STARTCHAR Zabovedot
ENCODING 175
SWIDTH 611 0
DWIDTH 10 0
BBX 9 15 0 0
BITMAP
0800
0800
0000
7f80
0100
0300
0200
0400
0c00
0800
1000
3000
2000
4000
ff80
ENDCHAR
STARTCHAR degree
ENCODING 176
SWIDTH 400 0
DWIDTH 7 0
BBX 5 5 1 7
BITMAP
70
88
88
88
70
ENDCHAR
STARTCHAR aogonek
ENCODING 177
SWIDTH 556 0
DWIDTH 9 0
BBX 8 13 1 -4
BITMAP
7c
82
02
06
7a
82
82
86
7b
10
20
24
38
ENDCHAR
STARTCHAR ogonek
ENCODING 178
SWIDTH 333 0
DWIDTH 6 0
BBX 4 4 1 -3
BITMAP
40
80
90
e0
ENDCHAR
STARTCHAR lstroke
ENCODING 179
SWIDTH 222 0
DWIDTH 3 0
BBX 3 12 0 0
BITMAP
40
40
40
40
60
40
c0
40
40
40
40
40
ENDCHAR
STARTCHAR acute
ENCODING 180
SWIDTH 333 0
DWIDTH 6 0
BBX 3 3 1 10
BITMAP
20
60
80
ENDCHAR
STARTCHAR lcaron
ENCODING 181
SWIDTH 360 0
DWIDTH 6 0
BBX 4 13 1 0
BITMAP
10
90
90
a0
80
80
80
80
80
80
80
80
80
ENDCHAR
STARTCHAR sacute
ENCODING 182
SWIDTH 500 0
DWIDTH 8 0
BBX 6 13 1 0
BITMAP
08
18
20
00
78
84
84
c0
30
0c
84
84
78
ENDCHAR
STARTCHAR caron
ENCODING 183
SWIDTH 333 0
DWIDTH 6 0
BBX 5 3 0 10
BITMAP
88
50
20
ENDCHAR
STARTCHAR cedilla
ENCODING 184
SWIDTH 333 0
DWIDTH 6 0
BBX 4 4 0 -4
BITMAP
20
20
90
60
ENDCHAR
STARTCHAR scaron
ENCODING 185
SWIDTH 500 0
DWIDTH 8 0
BBX 6 13 1 0
BITMAP
88
50
20
00
78
84
84
c0
30
0c
84
84
78
ENDCHAR
STARTCHAR scedilla
ENCODING 186
SWIDTH 500 0
DWIDTH 8 0
BBX 6 13 1 -4
BITMAP
78
84
84
c0
30
0c
84
84
78
10
10
48
30
ENDCHAR
STARTCHAR tcaron
ENCODING 187
SWIDTH 360 0
DWIDTH 6 0
BBX 5 14 1 0
BITMAP
08
08
08
50
40
f0
40
40
40
40
40
40
40
30
ENDCHAR
STARTCHAR zacute
ENCODING 188
SWIDTH 500 0
DWIDTH 8 0
BBX 6 13 1 0
BITMAP
08
18
20
00
fc
04
08
10
20
20
40
80
fc
ENDCHAR
STARTCHAR doubleacute
ENCODING 189
SWIDTH 333 0
DWIDTH 5 0
BBX 6 3 -1 9
BITMAP
6c
48
90
ENDCHAR
STARTCHAR zcaron
ENCODING 190
SWIDTH 500 0
DWIDTH 8 0
BBX 6 13 1 0
BITMAP
88
50
20
00
fc
04
08
10
20
20
40
80
fc
ENDCHAR
STARTCHAR zabovedot
ENCODING 191
SWIDTH 500 0
DWIDTH 8 0
BBX 6 12 1 0
BITMAP
20
20
00
fc
04
08
10
20
20
40
80
fc
ENDCHAR
STARTCHAR Racute
ENCODING 192
SWIDTH 722 0
DWIDTH 12 0
BBX 9 16 2 0
BITMAP
0400
0c00
1000
0000
fc00
8200
8100
8100
8200
fc00
8200
8100
8100
8100
8100
8080
ENDCHAR
STARTCHAR Aacute
ENCODING 193
SWIDTH 667 0
DWIDTH 11 0
BBX 10 16 0 0
BITMAP
0200
0600
0800
0000
0c00
0c00
1200
1200
1200
2100
2100
7f80
4080
4080
8040
8040
ENDCHAR
STARTCHAR Acircumflex
ENCODING 194
SWIDTH 667 0
DWIDTH 11 0
BBX 10 16 0 0
BITMAP
0400
0e00
1100
0000
0c00
0c00
1200
1200
1200
2100
2100
7f80
4080
4080
8040
8040
ENDCHAR
STARTCHAR Abreve
ENCODING 195
SWIDTH 667 0
DWIDTH 11 0
BBX 10 15 0 0
BITMAP
2200
1c00
0000
0c00
0c00
1200
1200
1200
2100
2100
7f80
4080
4080
8040
8040
ENDCHAR
STARTCHAR Adiaeresis
ENCODING 196
SWIDTH 667 0
DWIDTH 11 0
BBX 10 15 0 0
BITMAP
1200
1200
0000
0c00
0c00
1200
1200
1200
2100
2100
7f80
4080
4080
8040
8040
ENDCHAR
STARTCHAR Lacute
ENCODING 197
SWIDTH 556 0
DWIDTH 9 0
BBX 7 16 1 0
BITMAP
20
60
80
00
80
80
80
80
80
80
80
80
80
80
80
fe
ENDCHAR
STARTCHAR Cacute
ENCODING 198
SWIDTH 722 0
DWIDTH 12 0
BBX 10 16 1 0
BITMAP
0100
0300
0400
0000
0f00
3080
4040
4000
8000
8000
8000
8000
4000
4040
3080
0f00
ENDCHAR
STARTCHAR Ccedilla
ENCODING 199
SWIDTH 722 0
DWIDTH 12 0
BBX 10 16 1 -4
BITMAP
0f00
3080
4040
4000
8000
8000
8000
8000
4000
4040
3080
0f00
0400
0400
1200
0c00
ENDCHAR
STARTCHAR Ccaron
ENCODING 200
SWIDTH 722 0
DWIDTH 12 0
BBX 10 16 1 0
BITMAP
1100
0a00
0400
0000
0f00
3080
4040
4000
8000
8000
8000
8000
4000
4040
3080
0f00
ENDCHAR
STARTCHAR Eacute
ENCODING 201
SWIDTH 667 0
DWIDTH 11 0
BBX 8 16 1 0
BITMAP
04
0c
10
00
ff
80
80
80
80
ff
80
80
80
80
80
ff
ENDCHAR
STARTCHAR Eogonek
ENCODING 202
SWIDTH 667 0
DWIDTH 11 0
BBX 8 16 1 -4
BITMAP
ff
80
80
80
80
ff
80
80
80
80
80
ff
10
20
24
38
ENDCHAR
STARTCHAR Ediaeresis
ENCODING 203
SWIDTH 667 0
DWIDTH 11 0
BBX 8 15 1 0
BITMAP
24
24
00
ff
80
80
80
80
ff
80
80
80
80
80
ff
ENDCHAR
STARTCHAR Ecaron
ENCODING 204
SWIDTH 667 0
DWIDTH 11 0
BBX 8 16 1 0
BITMAP
44
28
10
00
ff
80
80
80
80
ff
80
80
80
80
80
ff
ENDCHAR
STARTCHAR Iacute
ENCODING 205
SWIDTH 278 0
DWIDTH 4 0
BBX 3 16 0 0
BITMAP
20
60
80
00
40
40
40
40
40
40
40
40
40
40
40
40
ENDCHAR
STARTCHAR Icircumflex
ENCODING 206
SWIDTH 278 0
DWIDTH 4 0
BBX 5 16 -1 0
BITMAP
20
70
88
00
20
20
20
20
20
20
20
20
20
20
20
20
ENDCHAR
STARTCHAR Dcaron
ENCODING 207
SWIDTH 722 0
DWIDTH 12 0
BBX 10 16 1 0
BITMAP
4400
2800
1000
0000
fc00
8300
8080
8080
8040
8040
8040
8040
8080
8080
8300
fc00
ENDCHAR
STARTCHAR Dstroke
ENCODING 208
SWIDTH 722 0
DWIDTH 12 0
BBX 12 12 0 0
BITMAP
3f00
20c0
2020
2020
2010
f810
2010
2010
2020
2020
20c0
3f00
ENDCHAR
STARTCHAR Nacute
ENCODING 209
SWIDTH 722 0
DWIDTH 12 0
BBX 9 16 1 0
BITMAP
0200
0600
0800
0000
8080
c080
a080
a080
9080
8880
8880
8480
8280
8280
8180
8080
ENDCHAR
STARTCHAR Ncaron
ENCODING 210
SWIDTH 722 0
DWIDTH 12 0
BBX 9 16 1 0
BITMAP
2200
1400
0800
0000
8080
c080
a080
a080
9080
8880
8880
8480
8280
8280
8180
8080
ENDCHAR
STARTCHAR Oacute
ENCODING 211
SWIDTH 778 0
DWIDTH 13 0
BBX 11 16 1 0
BITMAP
0100
0300
0400
0000
0e00
3180
4040
4040
8020
8020
8020
8020
4040
4040
3180
0e00
ENDCHAR
STARTCHAR Ocircumflex
ENCODING 212
SWIDTH 778 0
DWIDTH 13 0
BBX 11 16 1 0
BITMAP
0400
0e00
1100
0000
0e00
3180
4040
4040
8020
8020
8020
8020
4040
4040
3180
0e00
ENDCHAR
STARTCHAR Odoubleacute
ENCODING 213
SWIDTH 778 0
DWIDTH 13 0
BBX 11 16 1 0
BITMAP
06c0
0480
0900
0000
0e00
3180
4040
4040
8020
8020
8020
8020
4040
4040
3180
0e00
ENDCHAR
STARTCHAR Odiaeresis
ENCODING 214
SWIDTH 778 0
DWIDTH 13 0
BBX 11 15 1 0
BITMAP
1100
1100
0000
0e00
3180
4040
4040
8020
8020
8020
8020
4040
4040
3180
0e00
ENDCHAR
STARTCHAR multiply
ENCODING 215
SWIDTH 584 0
DWIDTH 10 0
BBX 8 8 1 0
BITMAP
81
42
24
18
18
24
42
81
ENDCHAR
STARTCHAR Rcaron
ENCODING 216
SWIDTH 722 0
DWIDTH 12 0
BBX 9 16 2 0
BITMAP
4400
2800
1000
0000
fc00
8200
8100
8100
8200
fc00
8200
8100
8100
8100
8100
8080
ENDCHAR
STARTCHAR Uring
ENCODING 217
SWIDTH 722 0
DWIDTH 12 0
BBX 9 16 1 0
BITMAP
0800
1400
0800
0000
8080
8080
8080
8080
8080
8080
8080
8080
8080
8080
4100
3e00
ENDCHAR
STARTCHAR Uacute
ENCODING 218
SWIDTH 722 0
DWIDTH 12 0
BBX 9 16 1 0
BITMAP
0200
0600
0800
0000
8080
8080
8080
8080
8080
8080
8080
8080
8080
8080
4100
3e00
ENDCHAR
STARTCHAR Udoubleacute
ENCODING 219
SWIDTH 722 0
DWIDTH 12 0
BBX 9 16 1 0
BITMAP
0d80
0900
1200
0000
8080
8080
8080
8080
8080
8080
8080
8080
8080
8080
4100
3e00
ENDCHAR
STARTCHAR Udiaeresis
ENCODING 220
SWIDTH 722 0
DWIDTH 12 0
BBX 9 15 1 0
BITMAP
2200
2200
0000
8080
8080
8080
8080
8080
8080
8080
8080
8080
8080
4100
3e00
ENDCHAR
STARTCHAR Yacute
ENCODING 221
SWIDTH 667 0
DWIDTH 11 0
BBX 9 16 1 0
BITMAP
0200
0600
0800
0000
8080
4100
4100
2200
2200
1400
1c00
0800
0800
0800
0800
0800
ENDCHAR
STARTCHAR Tcedilla
ENCODING 222
SWIDTH 611 0
DWIDTH 10 0
BBX 9 16 0 -4
BITMAP
ff80
0800
0800
0800
0800
0800
0800
0800
0800
0800
0800
0800
0400
0400
1200
0c00
ENDCHAR
STARTCHAR ssharp
ENCODING 223
SWIDTH 611 0
DWIDTH 10 0
BBX 7 12 2 0
BITMAP
78
84
82
82
84
bc
86
82
82
82
84
b8
ENDCHAR
STARTCHAR racute
ENCODING 224
SWIDTH 333 0
DWIDTH 5 0
BBX 4 13 1 0
BITMAP
10
30
40
00
b0
c0
80
80
80
80
80
80
80
ENDCHAR
STARTCHAR aacute
ENCODING 225
SWIDTH 556 0
DWIDTH 9 0
BBX 8 13 1 0
BITMAP
04
0c
10
00
7c
82
02
06
7a
82
82
86
7b
ENDCHAR
STARTCHAR acircumflex
ENCODING 226
SWIDTH 556 0
DWIDTH 9 0
BBX 8 13 1 0
BITMAP
10
38
44
00
7c
82
02
06
7a
82
82
86
7b
ENDCHAR
STARTCHAR abreve
ENCODING 227
SWIDTH 556 0
DWIDTH 9 0
BBX 8 12 1 0
BITMAP
44
38
00
7c
82
02
06
7a
82
82
86
7b
ENDCHAR
STARTCHAR adiaeresis
ENCODING 228
SWIDTH 556 0
DWIDTH 9 0
BBX 8 12 1 0
BITMAP
28
28
00
7c
82
02
06
7a
82
82
86
7b
ENDCHAR
STARTCHAR lacute
ENCODING 229
SWIDTH 222 0
DWIDTH 3 0
BBX 3 16 1 0
BITMAP
20
60
80
00
80
80
80
80
80
80
80
80
80
80
80
80
ENDCHAR
STARTCHAR cacute
ENCODING 230
SWIDTH 500 0
DWIDTH 8 0
BBX 7 13 1 0
BITMAP
04
0c
10
00
38
44
82
80
80
80
82
44
38
ENDCHAR
STARTCHAR ccedilla
ENCODING 231
SWIDTH 500 0
DWIDTH 8 0
BBX 7 13 1 -4
BITMAP
38
44
82
80
80
80
82
44
38
10
10
48
30
ENDCHAR
STARTCHAR ccaron
ENCODING 232
SWIDTH 500 0
DWIDTH 8 0
BBX 7 13 1 0
BITMAP
44
28
10
00
38
44
82
80
80
80
82
44
38
ENDCHAR
STARTCHAR eacute
ENCODING 233
SWIDTH 556 0
DWIDTH 9 0
BBX 7 13 1 0
BITMAP
08
18
20
00
38
44
82
82
fe
80
82
44
38
ENDCHAR
STARTCHAR eogonek
ENCODING 234
SWIDTH 556 0
DWIDTH 9 0
BBX 7 13 1 -4
BITMAP
38
44
82
82
fe
80
82
44
38
10
20
24
38
ENDCHAR
STARTCHAR ediaeresis
ENCODING 235
SWIDTH 556 0
DWIDTH 9 0
BBX 7 12 1 0
BITMAP
28
28
00
38
44
82
82
fe
80
82
44
38
ENDCHAR
STARTCHAR ecaron
ENCODING 236
SWIDTH 556 0
DWIDTH 9 0
BBX 7 13 1 0
BITMAP
44
28
10
00
38
44
82
82
fe
80
82
44
38
ENDCHAR
STARTCHAR iacute
ENCODING 237
SWIDTH 278 0
DWIDTH 4 0
BBX 3 13 1 0
BITMAP
20
60
80
00
40
40
40
40
40
40
40
40
40
ENDCHAR
STARTCHAR icircumflex
ENCODING 238
SWIDTH 278 0
DWIDTH 4 0
BBX 5 13 0 0
BITMAP
20
70
88
00
20
20
20
20
20
20
20
20
20
ENDCHAR
STARTCHAR dcaron
ENCODING 239
SWIDTH 720 0
DWIDTH 12 0
BBX 10 13 1 0
BITMAP
0040
0240
0240
0280
3a00
4600
8200
8200
8200
8200
8200
4600
3a00
ENDCHAR
STARTCHAR dstroke
ENCODING 240
SWIDTH 660 0
DWIDTH 11 0
BBX 9 12 1 0
BITMAP
0200
0f80
0200
3a00
4600
8200
8200
8200
8200
8200
4600
3a00
ENDCHAR
STARTCHAR nacute
ENCODING 241
SWIDTH 556 0
DWIDTH 9 0
BBX 7 13 1 0
BITMAP
04
0c
10
00
bc
c2
82
82
82
82
82
82
82
ENDCHAR
STARTCHAR ncaron
ENCODING 242
SWIDTH 556 0
DWIDTH 9 0
BBX 7 13 1 0
BITMAP
44
28
10
00
bc
c2
82
82
82
82
82
82
82
ENDCHAR
STARTCHAR oacute
ENCODING 243
SWIDTH 556 0
DWIDTH 9 0
BBX 7 13 1 0
BITMAP
08
18
20
00
38
44
82
82
82
82
82
44
38
ENDCHAR
STARTCHAR ocircumflex
ENCODING 244
SWIDTH 556 0
DWIDTH 9 0
BBX 7 13 1 0
BITMAP
10
38
44
00
38
44
82
82
82
82
82
44
38
ENDCHAR
STARTCHAR odoubleacute
ENCODING 245
SWIDTH 556 0
DWIDTH 9 0
BBX 8 13 1 0
BITMAP
1b
12
24
00
38
44
82
82
82
82
82
44
38
ENDCHAR
STARTCHAR odiaeresis
ENCODING 246
SWIDTH 556 0
DWIDTH 9 0
BBX 7 12 1 0
BITMAP
28
28
00
38
44
82
82
82
82
82
44
38
ENDCHAR
STARTCHAR division
ENCODING 247
SWIDTH 584 0
DWIDTH 10 0
BBX 7 9 1 0
BITMAP
10
10
00
00
fe
00
00
10
10
ENDCHAR
STARTCHAR rcaron
ENCODING 248
SWIDTH 333 0
DWIDTH 5 0
BBX 5 13 0 0
BITMAP
88
50
20
00
58
60
40
40
40
40
40
40
40
ENDCHAR
STARTCHAR uring
ENCODING 249
SWIDTH 556 0
DWIDTH 9 0
BBX 7 13 1 0
BITMAP
10
28
10
00
82
82
82
82
82
82
82
86
7a
ENDCHAR
STARTCHAR uacute
ENCODING 250
SWIDTH 556 0
DWIDTH 9 0
BBX 7 13 1 0
BITMAP
04
0c
10
00
82
82
82
82
82
82
82
86
7a
ENDCHAR
STARTCHAR udoubleacute
ENCODING 251
SWIDTH 556 0
DWIDTH 9 0
BBX 8 13 1 0
BITMAP
1b
12
24
00
82
82
82
82
82
82
82
86
7a
ENDCHAR
STARTCHAR udiaeresis
ENCODING 252
SWIDTH 556 0
DWIDTH 9 0
BBX 7 12 1 0
BITMAP
28
28
00
82
82
82
82
82
82
82
86
7a
ENDCHAR
STARTCHAR yacute
ENCODING 253
SWIDTH 500 0
DWIDTH 8 0
BBX 7 16 0 -3
BITMAP
08
18
20
00
82
82
44
44
28
28
38
10
10
20
20
c0
ENDCHAR
STARTCHAR tcedilla
ENCODING 254
SWIDTH 278 0
DWIDTH 5 0
BBX 4 15 1 -4
BITMAP
40
40
f0
40
40
40
40
40
40
40
30
20
20
90
60
ENDCHAR
STARTCHAR abovedot
ENCODING 255
SWIDTH 333 0
DWIDTH 6 0
BBX 1 2 2 10
BITMAP
80
80
ENDCHAR
ENDFONT
